<svg width="665" height="200" viewBox="0 0 665 200" fill="none" xmlns="http://www.w3.org/2000/svg">
<rect width="665" height="200" fill="black" style="fill:black;fill-opacity:1;"/>
<path d="M99.9999 157.6C131.812 157.6 157.6 131.812 157.6 99.9999C157.6 68.1883 131.812 42.3999 99.9999 42.3999C68.1883 42.3999 42.3999 68.1883 42.3999 99.9999C42.3999 131.812 68.1883 157.6 99.9999 157.6Z" fill="url(#paint0_linear_404_14739)" style=""/>
<path d="M121.878 133.6H76.2063C75.0987 133.6 74.0365 133.16 73.2534 132.377C72.4702 131.594 72.0303 130.531 72.0303 129.424V70.5759C72.0303 68.2695 73.8999 66.3999 76.2063 66.3999H121.878C124.182 66.3999 126.054 68.2695 126.054 70.5759V129.424C126.054 131.73 124.182 133.6 121.878 133.6Z" fill="white" style="fill:white;fill-opacity:1;"/>
<path d="M84.239 112.024H79.7822C79.4512 112.024 79.1338 112.155 78.8997 112.389C78.6657 112.623 78.5342 112.941 78.5342 113.272V117.726C78.5342 118.415 79.0934 118.974 79.7822 118.974H84.239C84.5696 118.974 84.8864 118.842 85.1199 118.608C85.3534 118.374 85.4846 118.057 85.4846 117.726V113.272C85.4839 112.941 85.3522 112.624 85.1182 112.391C84.8842 112.157 84.5672 112.026 84.2366 112.026L84.239 112.024ZM84.4886 100.926H79.5326C79.4016 100.926 79.2718 100.951 79.1507 101.001C79.0296 101.051 78.9195 101.125 78.8268 101.217C78.734 101.31 78.6604 101.42 78.6102 101.541C78.56 101.662 78.5342 101.791 78.5342 101.922V106.881C78.5342 107.43 78.9806 107.877 79.5302 107.877H84.4886C85.0406 107.877 85.4846 107.43 85.4846 106.881V101.92C85.4846 101.656 85.3796 101.402 85.1929 101.216C85.0061 101.029 84.7527 100.926 84.4886 100.926Z" fill="#F2755D" style="fill:#F2755D;fill:color(display-p3 0.9490 0.4588 0.3647);fill-opacity:1;"/>
<path d="M106.989 115.902H90.2391C90.0905 115.902 89.9479 115.961 89.8429 116.066C89.7378 116.172 89.6787 116.314 89.6787 116.463C89.6787 116.611 89.7378 116.754 89.8429 116.859C89.9479 116.964 90.0905 117.023 90.2391 117.023H106.991C107.14 117.023 107.282 116.964 107.387 116.859C107.492 116.754 107.552 116.611 107.552 116.463C107.552 116.314 107.492 116.172 107.387 116.066C107.282 115.961 107.137 115.902 106.989 115.902ZM118.989 113.255H90.2391C90.0908 113.255 89.9486 113.314 89.8437 113.419C89.7388 113.524 89.6799 113.666 89.6799 113.814C89.6799 113.963 89.7388 114.105 89.8437 114.21C89.9486 114.315 90.0908 114.374 90.2391 114.374H118.991C119.139 114.374 119.282 114.315 119.387 114.21C119.491 114.105 119.55 113.963 119.55 113.814C119.55 113.666 119.491 113.524 119.387 113.419C119.282 113.314 119.137 113.255 118.989 113.255ZM90.2391 105.928H106.991C107.14 105.928 107.283 105.869 107.388 105.763C107.494 105.658 107.553 105.515 107.553 105.366C107.553 105.217 107.494 105.075 107.388 104.969C107.283 104.864 107.14 104.805 106.991 104.805H90.2391C90.0905 104.805 89.9479 104.864 89.8429 104.969C89.7378 105.074 89.6787 105.216 89.6787 105.365C89.6787 105.514 89.7378 105.656 89.8429 105.761C89.9479 105.866 90.0905 105.928 90.2391 105.928ZM90.2391 103.278H118.991C119.14 103.278 119.282 103.219 119.387 103.114C119.492 103.009 119.552 102.867 119.552 102.718C119.552 102.569 119.492 102.427 119.387 102.322C119.282 102.217 119.14 102.158 118.991 102.158H90.2391C90.0905 102.158 89.9479 102.217 89.8429 102.322C89.7378 102.427 89.6787 102.569 89.6787 102.718C89.6787 102.867 89.7378 103.009 89.8429 103.114C89.9479 103.219 90.0905 103.278 90.2391 103.278ZM100.132 85.7103H118.686C118.835 85.7103 118.977 85.6513 119.083 85.5462C119.188 85.4411 119.247 85.2986 119.247 85.1499C119.247 85.0013 119.188 84.8588 119.083 84.7537C118.977 84.6486 118.835 84.5895 118.686 84.5895H100.134C99.9857 84.5895 99.8431 84.6486 99.738 84.7537C99.633 84.8588 99.5739 85.0013 99.5739 85.1499C99.5739 85.2986 99.633 85.4411 99.738 85.5462C99.8431 85.6513 99.9833 85.7103 100.132 85.7103ZM100.132 83.0607H118.686C118.835 83.0607 118.977 83.0018 119.082 82.8969C119.187 82.7921 119.246 82.6498 119.246 82.5015C119.246 82.3532 119.187 82.211 119.082 82.1061C118.977 82.0012 118.835 81.9423 118.686 81.9423H100.134C99.986 81.9423 99.8438 82.0012 99.7389 82.1061C99.634 82.211 99.5751 82.3532 99.5751 82.5015C99.5751 82.6498 99.634 82.7921 99.7389 82.8969C99.8438 83.0018 99.9836 83.0607 100.132 83.0607ZM100.132 80.4135H106.806C106.955 80.4135 107.097 80.3545 107.203 80.2494C107.308 80.1443 107.367 80.0018 107.367 79.8531C107.367 79.7045 107.308 79.562 107.203 79.4569C107.097 79.3518 106.955 79.2927 106.806 79.2927H100.134C99.9857 79.2927 99.8431 79.3518 99.738 79.4569C99.633 79.562 99.5739 79.7045 99.5739 79.8531C99.5739 80.0018 99.633 80.1443 99.738 80.2494C99.8431 80.3545 99.9833 80.4135 100.132 80.4135Z" fill="#DBDFE5" style="fill:#DBDFE5;fill:color(display-p3 0.8588 0.8745 0.8980);fill-opacity:1;"/>
<path d="M94.6718 91.0672C95.2814 91.0672 95.795 90.5344 95.6918 89.932C95.3449 87.9072 94.2937 86.0701 92.7237 84.7452C91.1538 83.4203 89.1661 82.6928 87.1118 82.6912C85.0806 82.6928 83.1139 83.4042 81.5516 84.7023C79.9893 86.0003 78.9296 87.8035 78.5558 89.8C78.5232 89.951 78.5244 90.1074 78.5594 90.2579C78.5944 90.4084 78.6623 90.5493 78.7582 90.6705C78.8541 90.7916 78.9757 90.89 79.1141 90.9586C79.2526 91.0272 79.4045 91.0643 79.559 91.0672H94.6718Z" fill="#616976" style="fill:#616976;fill:color(display-p3 0.3804 0.4118 0.4627);fill-opacity:1;"/>
<path d="M87.1191 81.5583C89.4096 81.5583 91.2663 79.7016 91.2663 77.4111C91.2663 75.1207 89.4096 73.2639 87.1191 73.2639C84.8287 73.2639 82.9719 75.1207 82.9719 77.4111C82.9719 79.7016 84.8287 81.5583 87.1191 81.5583Z" fill="#616976" style="fill:#616976;fill:color(display-p3 0.3804 0.4118 0.4627);fill-opacity:1;"/>
<path d="M132.578 94.0647L131.2 92.8911L129.849 91.7271L105.304 119.697L109.355 123.22L133.924 95.2575L132.578 94.0647Z" fill="#F3CD4C" style="fill:#F3CD4C;fill:color(display-p3 0.9529 0.8039 0.2980);fill-opacity:1;"/>
<path d="M134.963 89.9462C134.424 89.4771 133.72 89.2414 133.006 89.2909C132.293 89.3404 131.629 89.6711 131.159 90.2102L129.854 91.7102L133.922 95.2502L135.227 93.7502C135.46 93.4832 135.637 93.1729 135.75 92.8372C135.863 92.5014 135.908 92.1468 135.883 91.7935C135.859 91.4402 135.765 91.0952 135.607 90.7783C135.449 90.4613 135.23 90.1786 134.963 89.9462Z" fill="#616976" style="fill:#616976;fill:color(display-p3 0.3804 0.4118 0.4627);fill-opacity:1;"/>
<path d="M105.297 119.68L109.365 123.218L102.606 126.878L105.297 119.68Z" fill="#EADFC5" style="fill:#EADFC5;fill:color(display-p3 0.9176 0.8745 0.7725);fill-opacity:1;"/>
<path d="M103.127 125.488C103.3 125.538 103.454 125.632 103.588 125.752C103.722 125.872 103.835 126.006 103.91 126.169L102.604 126.88L103.127 125.488Z" fill="#616976" style="fill:#616976;fill:color(display-p3 0.3804 0.4118 0.4627);fill-opacity:1;"/>
<path d="M193.496 135.5V127.58L227.112 79.18H195.432V69.94H240.4V77.772L206.784 126.26H241.192V135.5H193.496ZM264.263 135.5L241.031 69.94H252.207L271.215 125.908H269.015L287.935 69.94H299.111L275.879 135.5H264.263ZM304.184 135.5V69.94H328.032C332.432 69.94 336.304 70.7613 339.648 72.404C342.992 73.988 345.602 76.3347 347.48 79.444C349.416 82.4947 350.384 86.1613 350.384 90.444C350.384 94.9613 349.24 98.8333 346.952 102.06C344.722 105.287 341.701 107.633 337.888 109.1L353.024 135.5H341.232L325.128 106.9L331.904 110.86H314.568V135.5H304.184ZM314.568 101.62H328.208C330.613 101.62 332.696 101.151 334.456 100.212C336.216 99.2733 337.565 97.9827 338.504 96.34C339.501 94.6387 340 92.644 340 90.356C340 88.068 339.501 86.1027 338.504 84.46C337.565 82.7587 336.216 81.468 334.456 80.588C332.696 79.6493 330.613 79.18 328.208 79.18H314.568V101.62ZM377.842 136.556C373.09 136.556 368.866 135.471 365.17 133.3C361.532 131.071 358.687 128.079 356.634 124.324C354.58 120.511 353.554 116.257 353.554 111.564C353.554 106.753 354.58 102.5 356.634 98.804C358.746 95.108 361.562 92.204 365.082 90.092C368.602 87.9213 372.591 86.836 377.05 86.836C380.628 86.836 383.826 87.452 386.642 88.684C389.458 89.916 391.834 91.6173 393.77 93.788C395.706 95.9 397.172 98.3347 398.17 101.092C399.226 103.849 399.754 106.783 399.754 109.892C399.754 110.655 399.724 111.447 399.666 112.268C399.607 113.089 399.49 113.852 399.314 114.556H361.386V106.636H393.682L388.93 110.244C389.516 107.369 389.311 104.817 388.314 102.588C387.375 100.3 385.908 98.5107 383.914 97.22C381.978 95.8707 379.69 95.196 377.05 95.196C374.41 95.196 372.063 95.8707 370.01 97.22C367.956 98.5107 366.372 100.388 365.258 102.852C364.143 105.257 363.703 108.191 363.938 111.652C363.644 114.879 364.084 117.695 365.258 120.1C366.49 122.505 368.191 124.383 370.362 125.732C372.591 127.081 375.114 127.756 377.93 127.756C380.804 127.756 383.239 127.111 385.234 125.82C387.287 124.529 388.9 122.857 390.074 120.804L398.17 124.764C397.231 126.993 395.764 129.017 393.77 130.836C391.834 132.596 389.487 134.004 386.73 135.06C384.031 136.057 381.068 136.556 377.842 136.556ZM424.418 136.556C419.549 136.556 415.266 135.353 411.57 132.948C407.933 130.543 405.381 127.316 403.914 123.268L411.57 119.66C412.861 122.359 414.621 124.5 416.85 126.084C419.138 127.668 421.661 128.46 424.418 128.46C426.765 128.46 428.672 127.932 430.138 126.876C431.605 125.82 432.338 124.383 432.338 122.564C432.338 121.391 432.016 120.452 431.37 119.748C430.725 118.985 429.904 118.369 428.906 117.9C427.968 117.431 427 117.079 426.002 116.844L418.522 114.732C414.416 113.559 411.336 111.799 409.282 109.452C407.288 107.047 406.29 104.26 406.29 101.092C406.29 98.2173 407.024 95.724 408.49 93.612C409.957 91.4413 411.981 89.7693 414.562 88.596C417.144 87.4227 420.048 86.836 423.274 86.836C427.616 86.836 431.488 87.9213 434.89 90.092C438.293 92.204 440.698 95.1667 442.106 98.98L434.45 102.588C433.512 100.3 432.016 98.4813 429.962 97.132C427.968 95.7827 425.709 95.108 423.186 95.108C421.016 95.108 419.285 95.636 417.994 96.692C416.704 97.6893 416.058 99.0093 416.058 100.652C416.058 101.767 416.352 102.705 416.938 103.468C417.525 104.172 418.288 104.759 419.226 105.228C420.165 105.639 421.133 105.991 422.13 106.284L429.874 108.572C433.805 109.687 436.826 111.447 438.938 113.852C441.05 116.199 442.106 119.015 442.106 122.3C442.106 125.116 441.344 127.609 439.818 129.78C438.352 131.892 436.298 133.564 433.658 134.796C431.018 135.969 427.938 136.556 424.418 136.556ZM466.194 136.556C462.615 136.556 459.476 135.764 456.778 134.18C454.079 132.537 451.967 130.279 450.442 127.404C448.975 124.471 448.242 121.097 448.242 117.284V87.892H458.186V116.404C458.186 118.575 458.626 120.481 459.506 122.124C460.386 123.767 461.618 125.057 463.202 125.996C464.786 126.876 466.604 127.316 468.658 127.316C470.77 127.316 472.618 126.847 474.202 125.908C475.786 124.969 477.018 123.649 477.898 121.948C478.836 120.247 479.306 118.252 479.306 115.964V87.892H489.162V135.5H479.746V126.172L480.802 127.404C479.687 130.337 477.839 132.596 475.258 134.18C472.676 135.764 469.655 136.556 466.194 136.556ZM498.132 135.5V87.892H507.636V98.188L506.404 96.604C507.401 93.3773 509.22 90.9427 511.86 89.3C514.5 87.6573 517.521 86.836 520.924 86.836C524.737 86.836 528.111 87.8627 531.044 89.916C534.036 91.9107 536.031 94.58 537.028 97.924L534.212 98.188C535.62 94.3747 537.761 91.5293 540.636 89.652C543.569 87.7747 546.913 86.836 550.668 86.836C553.953 86.836 556.916 87.5987 559.556 89.124C562.255 90.6493 564.396 92.7613 565.98 95.46C567.564 98.1587 568.356 101.239 568.356 104.7V135.5H558.412V107.428C558.412 105.023 557.972 102.999 557.092 101.356C556.271 99.6547 555.097 98.364 553.572 97.484C552.105 96.5453 550.375 96.076 548.38 96.076C546.385 96.076 544.625 96.5453 543.1 97.484C541.575 98.364 540.372 99.6547 539.492 101.356C538.612 103.057 538.172 105.081 538.172 107.428V135.5H528.316V107.428C528.316 105.023 527.876 102.999 526.996 101.356C526.175 99.6547 525.001 98.364 523.476 97.484C522.009 96.5453 520.249 96.076 518.196 96.076C516.201 96.076 514.441 96.5453 512.916 97.484C511.391 98.364 510.188 99.6547 509.308 101.356C508.487 103.057 508.076 105.081 508.076 107.428V135.5H498.132ZM598.711 136.556C593.959 136.556 589.735 135.471 586.039 133.3C582.402 131.071 579.557 128.079 577.503 124.324C575.45 120.511 574.423 116.257 574.423 111.564C574.423 106.753 575.45 102.5 577.503 98.804C579.615 95.108 582.431 92.204 585.951 90.092C589.471 87.9213 593.461 86.836 597.919 86.836C601.498 86.836 604.695 87.452 607.511 88.684C610.327 89.916 612.703 91.6173 614.639 93.788C616.575 95.9 618.042 98.3347 619.039 101.092C620.095 103.849 620.623 106.783 620.623 109.892C620.623 110.655 620.594 111.447 620.535 112.268C620.477 113.089 620.359 113.852 620.183 114.556H582.255V106.636H614.551L609.799 110.244C610.386 107.369 610.181 104.817 609.183 102.588C608.245 100.3 606.778 98.5107 604.783 97.22C602.847 95.8707 600.559 95.196 597.919 95.196C595.279 95.196 592.933 95.8707 590.879 97.22C588.826 98.5107 587.242 100.388 586.127 102.852C585.013 105.257 584.573 108.191 584.807 111.652C584.514 114.879 584.954 117.695 586.127 120.1C587.359 122.505 589.061 124.383 591.231 125.732C593.461 127.081 595.983 127.756 598.799 127.756C601.674 127.756 604.109 127.111 606.103 125.82C608.157 124.529 609.77 122.857 610.943 120.804L619.039 124.764C618.101 126.993 616.634 129.017 614.639 130.836C612.703 132.596 610.357 134.004 607.599 135.06C604.901 136.057 601.938 136.556 598.711 136.556Z" fill="white" style="fill:white;fill-opacity:1;"/>
<defs>
<linearGradient id="paint0_linear_404_14739" x1="60.5655" y1="42.9399" x2="125.781" y2="137.301" gradientUnits="userSpaceOnUse">
<stop stop-color="#5FB3E4" style="stop-color:#5FB3E4;stop-color:color(display-p3 0.3725 0.7020 0.8941);stop-opacity:1;"/>
<stop offset="1" stop-color="#4E80C1" style="stop-color:#4E80C1;stop-color:color(display-p3 0.3059 0.5020 0.7569);stop-opacity:1;"/>
</linearGradient>
</defs>
</svg>
